<svg width="40" height="40" viewBox="0 0 40 40" fill="none" xmlns="http://www.w3.org/2000/svg">
  <!-- Open book design with blockchain elements -->
  <g>
    <!-- Left page -->
    <path d="M4 8C4 8 8 6 12 6C16 6 20 8 20 8V32C20 32 16 30 12 30C8 30 4 32 4 32V8Z" 
          fill="#3B82F6" stroke="#2563EB" stroke-width="1.5" stroke-linejoin="round"/>
    
    <!-- Right page -->
    <path d="M36 8C36 8 32 6 28 6C24 6 20 8 20 8V32C20 32 24 30 28 30C32 30 36 32 36 32V8Z" 
          fill="#60A5FA" stroke="#3B82F6" stroke-width="1.5" stroke-linejoin="round"/>
    
    <!-- Book spine -->
    <line x1="20" y1="8" x2="20" y2="32" stroke="#1E40AF" stroke-width="2" stroke-linecap="round"/>
    
    <!-- Blockchain symbols on left page -->
    <!-- Top block -->
    <rect x="9" y="11" width="6" height="4" rx="0.5" fill="none" stroke="#E0E7FF" stroke-width="1.2"/>
    <line x1="10.5" y1="13" x2="13.5" y2="13" stroke="#E0E7FF" stroke-width="0.8"/>
    
    <!-- Connection line -->
    <line x1="12" y1="15" x2="12" y2="17" stroke="#E0E7FF" stroke-width="1.2"/>
    
    <!-- Middle block -->
    <rect x="9" y="17" width="6" height="4" rx="0.5" fill="none" stroke="#E0E7FF" stroke-width="1.2"/>
    <line x1="10.5" y1="19" x2="13.5" y2="19" stroke="#E0E7FF" stroke-width="0.8"/>
    
    <!-- Connection line -->
    <line x1="12" y1="21" x2="12" y2="23" stroke="#E0E7FF" stroke-width="1.2"/>
    
    <!-- Bottom block -->
    <rect x="9" y="23" width="6" height="4" rx="0.5" fill="none" stroke="#E0E7FF" stroke-width="1.2"/>
    <line x1="10.5" y1="25" x2="13.5" y2="25" stroke="#E0E7FF" stroke-width="0.8"/>
    
    <!-- Blockchain symbols on right page -->
    <!-- Top block -->
    <rect x="25" y="11" width="6" height="4" rx="0.5" fill="none" stroke="#DBEAFE" stroke-width="1.2"/>
    <line x1="26.5" y1="13" x2="29.5" y2="13" stroke="#DBEAFE" stroke-width="0.8"/>
    
    <!-- Connection line -->
    <line x1="28" y1="15" x2="28" y2="17" stroke="#DBEAFE" stroke-width="1.2"/>
    
    <!-- Middle block -->
    <rect x="25" y="17" width="6" height="4" rx="0.5" fill="none" stroke="#DBEAFE" stroke-width="1.2"/>
    <line x1="26.5" y1="19" x2="29.5" y2="19" stroke="#DBEAFE" stroke-width="0.8"/>
    
    <!-- Connection line -->
    <line x1="28" y1="21" x2="28" y2="23" stroke="#DBEAFE" stroke-width="1.2"/>
    
    <!-- Bottom block -->
    <rect x="25" y="23" width="6" height="4" rx="0.5" fill="none" stroke="#DBEAFE" stroke-width="1.2"/>
    <line x1="26.5" y1="25" x2="29.5" y2="25" stroke="#DBEAFE" stroke-width="0.8"/>
  </g>
</svg>
